<?xml version="1.0" encoding="UTF-8"?>
<svg version="1.1" xmlns="http://www.w3.org/2000/svg" width="5000" height="5000">
<path d="M0 0 C1650 0 3300 0 5000 0 C5000 1650 5000 3300 5000 5000 C3350 5000 1700 5000 0 5000 C0 3350 0 1700 0 0 Z " fill="#414141" transform="translate(0,0)"/>
<path d="M0 0 C2.96470328 1.14861185 5.80233962 2.34717387 8.58203125 3.890625 C9.58919189 4.4487085 9.58919189 4.4487085 10.61669922 5.01806641 C11.34131348 5.42460449 12.06592773 5.83114258 12.8125 6.25 C13.59383301 6.68618652 14.37516602 7.12237305 15.18017578 7.57177734 C22.64234535 11.75915044 30.02723703 16.07699892 37.40942383 20.40332031 C45.24254068 24.98957799 53.11307749 29.5072661 61 34 C70.72143706 39.53951839 80.40895317 45.13375194 90.06689453 50.78344727 C100.59084625 56.93766742 111.15380137 63.02369996 121.71777344 69.10888672 C127.14659942 72.23680148 132.57319281 75.36858448 138 78.5 C140.16665583 79.75001879 142.3333225 81.00001878 144.5 82.25 C242 138.5 242 138.5 339.5 194.75 C340.57266113 195.36883057 341.64532227 195.98766113 342.75048828 196.62524414 C344.91557071 197.87435518 347.08060982 199.12354129 349.24560547 200.37280273 C354.68615706 203.51202309 360.12747216 206.64990563 365.5703125 209.78515625 C376.02206199 215.80747329 386.46299548 221.84669337 396.875 227.9375 C405.55262241 233.01275123 414.26605568 238.02258767 423 243 C432.72115617 248.5400173 442.40894658 254.13374809 452.06689453 259.78344727 C462.59084625 265.93766742 473.15380137 272.02369996 483.71777344 278.10888672 C489.14659942 281.23680148 494.57319281 284.36858448 500 287.5 C502.16665583 288.75001879 504.3333225 290.00001878 506.5 291.25 C536.83333333 308.75 567.16666667 326.25 597.5 343.75 C599.11092529 344.6793335 599.11092529 344.6793335 600.75439453 345.62744141 C602.9065213 346.86911527 605.05854073 348.11097522 607.21044922 349.35302734 C612.25030977 352.26166823 617.29117492 355.16851898 622.33599854 358.06854248 C624.11749578 359.09275665 625.89864322 360.11757651 627.6796875 361.14257812 C629.91076625 362.42633375 632.14249573 363.70895939 634.375 364.99023438 C635.38820313 365.57353516 636.40140625 366.15683594 637.4453125 366.7578125 C638.40083008 367.30598633 639.35634766 367.85416016 640.34082031 368.41894531 C643.38337601 370.22794189 646.30210578 372.18434428 649.17919922 374.24560547 C651.79420749 375.3290562 653.3213637 374.81176196 656 374 C658.34393461 372.931069 658.34393461 372.931069 660.67578125 371.55078125 C661.57337158 371.0398291 662.47096191 370.52887695 663.39575195 370.00244141 C664.35827881 369.44476074 665.32080566 368.88708008 666.3125 368.3125 C667.32723389 367.73161621 668.34196777 367.15073242 669.38745117 366.55224609 C678.56758652 361.28487432 687.70563081 355.94415377 696.83984375 350.59765625 C706.43942238 344.98321325 716.08135951 339.4419968 725.71777344 333.89111328 C731.14659942 330.76319852 736.57319281 327.63141552 742 324.5 C744.16665583 323.24998121 746.3333225 321.99998122 748.5 320.75 C749.5725 320.13125 750.645 319.5125 751.75 318.875 C917.5 223.25 917.5 223.25 920.75048828 221.37475586 C922.91557071 220.12564482 925.08060982 218.87645871 927.24560547 217.62719727 C932.68615706 214.48797691 938.12747216 211.35009437 943.5703125 208.21484375 C954.02206199 202.19252671 964.46299548 196.15330663 974.875 190.0625 C984.14499777 184.64078822 993.45831752 179.29795085 1002.78845215 173.98077393 C1011.9128284 168.77954871 1021.00132774 163.51972122 1030.06689453 158.21655273 C1040.59084625 152.06233258 1051.15380137 145.97630004 1061.71777344 139.89111328 C1067.14659942 136.76319852 1072.57319281 133.63141552 1078 130.5 C1080.16665583 129.24998121 1082.3333225 127.99998122 1084.5 126.75 C1085.5725 126.13125 1086.645 125.5125 1087.75 124.875 C1253.5 29.25 1253.5 29.25 1256.75512695 27.37207031 C1258.90473634 26.13189239 1261.05431358 24.89165873 1263.20385742 23.65136719 C1268.27309212 20.7264977 1273.34264936 17.80219167 1278.4133606 14.87988281 C1280.80426597 13.50193062 1283.19498672 12.12365828 1285.58569336 10.74536133 C1287.26983963 9.77459018 1288.95425231 8.80428126 1290.63867188 7.83398438 C1291.66154297 7.24423828 1292.68441406 6.65449219 1293.73828125 6.046875 C1294.63587158 5.52963867 1295.53346191 5.01240234 1296.45825195 4.47949219 C1298.2239205 3.45173775 1299.97154305 2.39259918 1301.70385742 1.30957031 C1304 0 1304 0 1306 0 C1306.40613525 0.7120459 1306.81227051 1.4240918 1307.23071289 2.15771484 C1316.49191534 18.39045455 1325.7907986 34.60059805 1335.14111328 50.78222656 C1338.26324605 56.18670645 1341.38141204 61.59347412 1344.5 67 C1345.74998122 69.1666775 1346.99998121 71.33334417 1348.25 73.5 C1355.75 86.50000001 1355.75 86.50000001 1357.62524414 89.75048828 C1358.87435518 91.91557071 1360.12354129 94.08060982 1361.37280273 96.24560547 C1364.51202309 101.68615706 1367.64990563 107.12747216 1370.78515625 112.5703125 C1376.80747329 123.02206199 1382.84669337 133.46299548 1388.9375 143.875 C1394.35921178 153.14499777 1399.70204915 162.45831752 1405.01922607 171.78845215 C1410.22045129 180.9128284 1415.48027878 190.00132774 1420.78344727 199.06689453 C1426.93766742 209.59084625 1433.02369996 220.15380137 1439.10888672 230.71777344 C1442.23680148 236.14659942 1445.36858448 241.57319281 1448.5 247 C1449.75001879 249.16665583 1451.00001878 251.3333225 1452.25 253.5 C1452.86875 254.5725 1453.4875 255.645 1454.125 256.75 C1564.75000001 448.50000001 1564.75000001 448.50000001 1566.62524414 451.75048828 C1567.87435518 453.91557071 1569.12354129 456.08060982 1570.37280273 458.24560547 C1573.51202309 463.68615706 1576.64990563 469.12747216 1579.78515625 474.5703125 C1585.80747329 485.02206199 1591.84669337 495.46299548 1597.9375 505.875 C1603.35921178 515.14499777 1608.70204915 524.45831752 1614.01922607 533.78845215 C1619.22045129 542.9128284 1624.48027878 552.00132774 1629.78344727 561.06689453 C1635.93766742 571.59084625 1642.02369996 582.15380137 1648.10888672 592.71777344 C1651.23680148 598.14659942 1654.36858448 603.57319281 1657.5 609 C1658.75001879 611.16665583 1660.00001878 613.3333225 1661.25 615.5 C1661.86875 616.5725 1662.4875 617.645 1663.125 618.75 C1668.74999997 628.49999995 1668.74999997 628.49999995 1670.62695312 631.75341797 C1671.8704051 633.90871311 1673.11389436 636.06398673 1674.35742188 638.21923828 C1677.24462875 643.22337674 1680.1315043 648.2277052 1683.01696777 653.23284912 C1684.02619104 654.98341241 1685.03553836 656.73390411 1686.04492188 658.484375 C1687.3016766 660.66392165 1688.55820586 662.84359832 1689.81445312 665.0234375 C1690.39130859 666.02375 1690.96816406 667.0240625 1691.5625 668.0546875 C1692.12066406 669.02889648 1692.67882813 670.00310547 1693.25390625 671.00683594 C1694.48381825 673.11515824 1695.74465954 675.20558801 1697.02734375 677.28222656 C1697.67832031 678.34666992 1698.32929688 679.41111328 1699 680.5078125 C1699.598125 681.46574707 1700.19625 682.42368164 1700.8125 683.41064453 C1702 686 1702 686 1701.96459961 688.16040039 C1700.6225765 690.71978893 1699.07791303 691.51137704 1696.56640625 692.92578125 C1695.62104004 693.46710693 1694.67567383 694.00843262 1693.70166016 694.56616211 C1692.6657373 695.14245361 1691.62981445 695.71874512 1690.5625 696.3125 C1689.48790527 696.92424072 1688.41331055 697.53598145 1687.30615234 698.16625977 C1685.02569474 699.46430799 1682.74240559 700.75739225 1680.45654297 702.04589844 C1676.06603733 704.52800093 1671.70049065 707.05190457 1667.33569336 709.57885742 C1664.08301861 711.46180266 1660.82714983 713.33910862 1657.5703125 715.21484375 C1651.04513757 718.97355381 1644.5223655 722.7364175 1638 726.5 C1635.83334417 727.75001879 1633.6666775 729.00001878 1631.5 730.25 C1629.89125 731.178125 1629.89125 731.178125 1628.25 732.125 C1462.50000001 827.75 1462.50000001 827.75 1459.24951172 829.62524414 C1457.08442929 830.87435518 1454.91939018 832.12354129 1452.75439453 833.37280273 C1447.31384294 836.51202309 1441.87252784 839.64990563 1436.4296875 842.78515625 C1425.97793801 848.80747329 1415.53700452 854.84669337 1405.125 860.9375 C1395.85500223 866.35921178 1386.54168248 871.70204915 1377.21154785 877.01922607 C1368.0871716 882.22045129 1358.99867226 887.48027878 1349.93310547 892.78344727 C1339.40915375 898.93766742 1328.84619863 905.02369996 1318.28222656 911.10888672 C1312.85340058 914.23680148 1307.42680719 917.36858448 1302 920.5 C1299.83334417 921.75001879 1297.6666775 923.00001878 1295.5 924.25 C1293.89125 925.178125 1293.89125 925.178125 1292.25 926.125 C1100.49999998 1036.75000001 1100.49999998 1036.75000001 1097.24951172 1038.62524414 C1095.08442929 1039.87435518 1092.91939018 1041.12354129 1090.75439453 1042.37280273 C1085.31384294 1045.51202309 1079.87252784 1048.64990563 1074.4296875 1051.78515625 C1063.97793801 1057.80747329 1053.53700452 1063.84669337 1043.125 1069.9375 C1033.85500223 1075.35921178 1024.54168248 1080.70204915 1015.21154785 1086.01922607 C1006.0871716 1091.22045129 996.99867226 1096.48027878 987.93310547 1101.78344727 C977.40915375 1107.93766742 966.84619863 1114.02369996 956.28222656 1120.10888672 C950.85340058 1123.23680148 945.42680719 1126.36858448 940 1129.5 C937.83334417 1130.75001879 935.6666775 1132.00001878 933.5 1133.25 C932.4275 1133.86875 931.355 1134.4875 930.25 1135.125 C738.50000001 1245.74999999 738.50000001 1245.74999999 735.24951172 1247.62524414 C733.08442929 1248.87435518 730.91939018 1250.12354129 728.75439453 1251.37280273 C723.31384294 1254.51202309 717.87252784 1257.64990563 712.4296875 1260.78515625 C702.72431653 1266.37736041 693.02327936 1271.97619306 683.3515625 1277.62646484 C681.3137202 1278.81638252 679.27469175 1280.00427159 677.234375 1281.18994141 C672.99946748 1283.6519808 668.77571573 1286.12357154 664.6015625 1288.6875 C663.95928711 1289.07494385 663.31701172 1289.4623877 662.65527344 1289.86157227 C661.03147051 1290.84293534 659.41751579 1291.84054683 657.8046875 1292.83984375 C654.29797132 1294.29039348 652.66338106 1293.87041391 649 1293 C646.34472656 1291.74755859 646.34472656 1291.74755859 643.640625 1290.1484375 C642.62097656 1289.55224609 641.60132812 1288.95605469 640.55078125 1288.34179688 C639.46152344 1287.69275391 638.37226563 1287.04371094 637.25 1286.375 C636.09302648 1285.69497822 634.93546287 1285.01595953 633.77734375 1284.33789062 C631.37334852 1282.92932676 628.97194227 1281.51649359 626.57226562 1280.10058594 C621.0716512 1276.85983022 615.53396591 1273.68333677 610 1270.5 C607.83315966 1269.25030108 605.6664935 1268.00030011 603.5 1266.75 C602.4275 1266.13125 601.355 1265.5125 600.25 1264.875 C553.66666667 1238 507.08333333 1211.125 460.5 1184.25 C459.42733887 1183.63116943 458.35467773 1183.01233887 457.24951172 1182.37475586 C455.08442929 1181.12564482 452.91939018 1179.87645871 450.75439453 1178.62719727 C445.31384294 1175.48797691 439.87252784 1172.35009437 434.4296875 1169.21484375 C423.97793801 1163.19252671 413.53700452 1157.15330663 403.125 1151.0625 C394.44737759 1145.98724877 385.73394432 1140.97741233 377 1136 C367.27884383 1130.4599827 357.59105342 1124.86625191 347.93310547 1119.21655273 C337.40915375 1113.06233258 326.84619863 1106.97630004 316.28222656 1100.89111328 C310.85340058 1097.76319852 305.42680719 1094.63141552 300 1091.5 C297.83334417 1090.24998121 295.6666775 1088.99998122 293.5 1087.75 C237.16666667 1055.25 180.83333333 1022.75 124.5 990.25 C123.42733887 989.63116943 122.35467773 989.01233887 121.24951172 988.37475586 C119.08442929 987.12564482 116.91939018 985.87645871 114.75439453 984.62719727 C109.31384294 981.48797691 103.87252784 978.35009437 98.4296875 975.21484375 C87.97793801 969.19252671 77.53700452 963.15330663 67.125 957.0625 C58.44737759 951.98724877 49.73394432 946.97741233 41 942 C31.27884383 936.4599827 21.59105342 930.86625191 11.93310547 925.21655273 C1.40915375 919.06233258 -9.15380137 912.97630004 -19.71777344 906.89111328 C-25.14659942 903.76319852 -30.57319281 900.63141552 -36 897.5 C-38.16665583 896.24998121 -40.3333225 894.99998122 -42.5 893.75 C-107.5 856.25 -172.5 818.75 -237.5 781.25 C-238.57266113 780.63116943 -239.64532227 780.01233887 -240.75048828 779.37475586 C-242.91557071 778.12564482 -245.08060982 776.87645871 -247.24560547 775.62719727 C-252.68615706 772.48797691 -258.12747216 769.35009437 -263.5703125 766.21484375 C-274.02206199 760.19252671 -284.46299548 754.15330663 -294.875 748.0625 C-303.55262241 742.98724877 -312.26605568 737.97741233 -321 733 C-330.70946744 727.46664403 -340.3865369 721.88119317 -350.03173828 716.23632812 C-358.69757875 711.16689111 -367.39293284 706.14963486 -376.09814453 701.14819336 C-378.11072302 699.99010767 -380.12077493 698.82761692 -382.12792969 697.66015625 C-384.0557814 696.5457911 -385.99423758 695.44958902 -387.94238281 694.37109375 C-388.85084961 693.85675781 -389.75931641 693.34242188 -390.6953125 692.8125 C-391.50242676 692.36519531 -392.30954102 691.91789062 -393.14111328 691.45703125 C-395 690 -395 690 -395.94873047 688.17431641 C-396.02444717 684.9632073 -394.74486622 683.15355997 -393.125 680.3984375 C-392.47708496 679.28178711 -391.82916992 678.16513672 -391.16162109 677.01464844 C-390.44125985 675.80132593 -389.72071462 674.58811263 -389 673.375 C-388.26393032 672.11561318 -387.52908316 670.85551111 -386.79541016 669.59472656 C-385.28127633 666.99617393 -383.76084724 664.40146844 -382.23535156 661.80957031 C-379.53183527 657.21094922 -376.87552759 652.58587953 -374.21899414 647.95996094 C-368.30826839 637.67077489 -362.32990174 627.42154352 -356.33935547 617.17871094 C-351.84472573 609.47975166 -347.41400101 601.74531754 -343 594 C-337.4599827 584.27884383 -331.86625191 574.59105342 -326.21655273 564.93310547 C-320.06233258 554.40915375 -313.97630004 543.84619863 -307.89111328 533.28222656 C-304.76319852 527.85340058 -301.63141552 522.42680719 -298.5 517 C-297.24998121 514.83334417 -295.99998122 512.6666775 -294.75 510.5 C-257.25 445.5 -219.75 380.5 -182.25 315.5 C-181.63116943 314.42733887 -181.01233887 313.35467773 -180.37475586 312.24951172 C-179.12564482 310.08442929 -177.87645871 307.91939018 -176.62719727 305.75439453 C-173.48797691 300.31384294 -170.35009437 294.87252784 -167.21484375 289.4296875 C-161.19252671 278.97793801 -155.15330663 268.53700452 -149.0625 258.125 C-143.98724877 249.44737759 -138.97741233 240.73394432 -134 232 C-128.4599827 222.27884383 -122.86625191 212.59105342 -117.21655273 202.93310547 C-111.06233258 192.40915375 -104.97630004 181.84619863 -98.89111328 171.28222656 C-95.76319852 165.85340058 -92.63141552 160.42680719 -89.5 155 C-88.24998121 152.83334417 -86.99998122 150.6666775 -85.75 148.5 C-68.25 118.16666667 -50.75 87.83333333 -33.25 57.5 C-32.63060547 56.42637207 -32.01121094 55.35274414 -31.37304688 54.24658203 C-30.1295949 52.09128689 -28.88610564 49.93601327 -27.64257812 47.78076172 C-24.75537125 42.77662326 -21.8684957 37.7722948 -18.98303223 32.76715088 C-17.97380896 31.01658759 -16.96446164 29.26609589 -15.95507812 27.515625 C-14.6983234 25.33607835 -13.44179414 23.15640168 -12.18554688 20.9765625 C-8.14583558 13.97138717 -4.0806316 6.98141493 0 0 Z " fill="#2BAEE2" transform="translate(1847,1695)"/>
<path d="M0 0 C5.72248721 1.58182573 10.47911198 4.4001162 15.5625 7.375 C17.44390227 8.46372857 19.32541586 9.55226479 21.20703125 10.640625 C22.16689941 11.19814453 23.12676758 11.75566406 24.11572266 12.33007812 C27.77055168 14.44612947 31.44023905 16.53543277 35.11108398 18.62353516 C42.96639637 23.09297462 50.78412741 27.61957979 58.56323242 32.22021484 C64.03378591 35.44871725 69.5422582 38.60733648 75.0625 41.75 C82.88256921 46.20203755 90.66909757 50.70841639 98.4375 55.25 C106.30020034 59.84595175 114.17461784 64.41613008 122.09277344 68.91601562 C133.2907356 75.2804488 144.47494641 81.66234988 155.56152344 88.21923828 C161.0326788 91.44801213 166.54168743 94.60701154 172.0625 97.75 C180.92677771 102.79651508 189.74370077 107.92083626 198.54907227 113.06933594 C203.68563745 116.0711868 208.82829866 119.05910544 214 122 C220.21608317 125.53478363 226.38944952 129.14066308 232.5625 132.75 C241.03688485 137.70393144 249.53792393 142.60677815 258.0690918 147.4621582 C264.69836547 151.24113733 271.29026913 155.081524 277.875 158.9375 C286.81698355 164.17246497 295.81200024 169.3042777 304.84277344 174.38427734 C311.15987675 177.94350015 317.42760951 181.57560389 323.66552734 185.27148438 C329.10023785 188.48612918 334.5749649 191.62650665 340.0625 194.75 C347.63063094 199.05956258 355.16916188 203.41665282 362.6875 207.8125 C378.94872006 217.31820753 395.26051504 226.73568047 411.625 236.0625 C420.01927535 240.8476541 428.37039535 245.70413127 436.71191406 250.58056641 C447.3482831 256.79558945 458.02105818 262.94689909 468.69580078 269.09570312 C472.02614252 271.01506662 475.35509148 272.93682353 478.68359375 274.859375 C488.6514338 280.61613196 498.62397306 286.36356416 508.625 292.0625 C519.18719091 298.08452527 529.69038613 304.20631601 540.18212891 310.35009766 C542.87437147 311.92644276 545.56797867 313.50043457 548.26171875 315.07421875 C549.82042875 315.98678064 551.37903003 316.89952826 552.9375 317.8125 C553.64745117 318.22709473 554.35740234 318.64168945 555.08886719 319.06884766 C559.88479303 321.88479303 559.88479303 321.88479303 561 323 C561.09717338 324.4750766 561.12447352 325.95480832 561.1241985 327.43308216 C561.12644579 328.39858582 561.12869308 329.36408947 561.13100848 330.35885081 C561.12706796 331.97209049 561.12706796 331.97209049 561.12304783 333.61792088 C561.12420167 334.75366184 561.12535552 335.8894028 561.12654433 337.05956015 C561.12875032 340.24019187 561.12642203 343.42078475 561.12226619 346.60141339 C561.11884869 350.0509965 561.12119959 353.50057622 561.12284368 356.95015997 C561.12492332 363.00527106 561.12326364 369.06037237 561.11920547 375.11548233 C561.11318776 384.11930789 561.11286805 393.12312722 561.11374746 402.12695442 C561.11506358 417.27043489 561.11171156 432.41391101 561.10573006 447.55739021 C561.09981986 462.55865564 561.09596549 477.55991925 561.09487724 492.56118584 C561.0948085 493.49274213 561.09473976 494.42429843 561.09466894 495.3840837 C561.09433062 500.11468493 561.09402923 504.84528615 561.09374207 509.57588737 C561.09163976 543.11219764 561.08489715 576.64850553 561.07543945 610.18481445 C561.06626009 642.77172839 561.05917399 675.35864167 561.05493164 707.94555664 C561.05473435 709.45136771 561.05473435 709.45136771 561.05453308 710.98759921 C561.05321459 721.06860433 561.05193878 731.14960946 561.05069422 741.23061459 C561.04815777 761.76811789 561.04533652 782.30562115 561.04234314 802.84312439 C561.04220585 803.78747566 561.04206856 804.73182692 561.04192711 805.70479489 C561.0327212 868.80319758 561.01687539 931.90159895 561 995 C558.62025985 993.73685859 556.24121744 992.47243185 553.86254883 991.20727539 C553.19572334 990.85350075 552.52889786 990.4997261 551.84186554 990.13523102 C546.03753733 987.04591827 540.34835666 983.78228086 534.6875 980.4375 C532.60580279 979.21557657 530.52375929 977.99424294 528.44140625 976.7734375 C527.38195801 976.15178711 526.32250977 975.53013672 525.23095703 974.88964844 C519.87560715 971.75753357 514.50071228 968.65949655 509.125 965.5625 C508.04565186 964.94044678 506.96630371 964.31839355 505.85424805 963.67749023 C503.66367265 962.41519376 501.47299869 961.1530683 499.28222656 959.89111328 C493.85340058 956.76319852 488.42680719 953.63141552 483 950.5 C480.83334417 949.24998121 478.6666775 947.99998122 476.5 946.75 C418 913 418 913 359.5 879.25 C358.42733887 878.63116943 357.35467773 878.01233887 356.24951172 877.37475586 C354.08442929 876.12564482 351.91939018 874.87645871 349.75439453 873.62719727 C344.31384294 870.48797691 338.87252784 867.35009437 333.4296875 864.21484375 C322.97793801 858.19252671 312.53700452 852.15330663 302.125 846.0625 C293.44737759 840.98724877 284.73394432 835.97741233 276 831 C266.27884383 825.4599827 256.59105342 819.86625191 246.93310547 814.21655273 C236.40915375 808.06233258 225.84619863 801.97630004 215.28222656 795.89111328 C209.85340058 792.76319852 204.42680719 789.63141552 199 786.5 C196.83334417 785.24998121 194.6666775 783.99998122 192.5 782.75 C153.49999999 760.24999999 153.49999999 760.24999999 150.2487793 758.37426758 C148.08621417 757.1266526 145.92361661 755.87909384 143.76098633 754.6315918 C138.28129629 751.47056551 132.80220642 748.30850691 127.32421875 745.14453125 C117.35352117 739.38691778 107.37860259 733.63778107 97.375 727.9375 C88.98438586 723.15454529 80.63710698 718.29995559 72.29907227 713.42602539 C57.04052023 704.5108477 41.72848553 695.68810774 26.375 686.9375 C17.98443362 682.1544602 9.63710808 677.29995624 1.29907227 672.42602539 C-14.80226459 663.0184303 -30.96707432 653.72142962 -47.16870117 644.48779297 C-54.82921749 640.11390649 -62.4447888 635.66441683 -70.05908203 631.21069336 C-76.51846363 627.43639822 -82.99840709 623.70105898 -89.5 620 C-98.05490292 615.1300857 -106.56159835 610.18108296 -115.05859375 605.2109375 C-122.36960586 600.93912347 -129.71171766 596.72518291 -137.07080078 592.53686523 C-143.69950687 588.7582157 -150.29083553 584.91814432 -156.875 581.0625 C-165.822083 575.82454963 -174.82241482 570.69015074 -183.8581543 565.60693359 C-190.00044576 562.14599772 -196.09460327 558.61554975 -202.15795898 555.01855469 C-209.06164891 550.93603337 -216.03153982 546.97043638 -223 543 C-231.33280024 538.25174102 -239.64714177 533.47799686 -247.89794922 528.58813477 C-253.43947964 525.31071535 -259.02880101 522.12049418 -264.625 518.9375 C-273.15997192 514.08174457 -281.61081161 509.10310077 -290 504 C-288.62551133 500.36367377 -286.99565142 497.02935879 -285.09375 493.640625 C-284.23305908 492.10390137 -284.23305908 492.10390137 -283.35498047 490.53613281 C-282.74283691 489.45170898 -282.13069336 488.36728516 -281.5 487.25 C-280.55278076 485.56535645 -280.55278076 485.56535645 -279.58642578 483.84667969 C-275.68777867 476.9326959 -271.72831531 470.05947516 -267.6784668 463.2331543 C-264.50126028 457.87391002 -261.3965098 452.47586214 -258.3125 447.0625 C-251.89144929 435.79419571 -245.40994633 424.56123131 -238.92333984 413.33056641 C-235.78041206 407.88809106 -232.64032882 402.44397523 -229.5 397 C-228.2500141 394.8333252 -227.00001408 392.66665854 -225.75 390.5 C-225.13125 389.4275 -224.5125 388.355 -223.875 387.25 C-217 375.33333333 -210.125 363.41666667 -203.25 351.5 C-202.63116943 350.42733887 -202.01233887 349.35467773 -201.37475586 348.24951172 C-200.12564482 346.08442929 -198.87645871 343.91939018 -197.62719727 341.75439453 C-194.48797691 336.31384294 -191.35009437 330.87252784 -188.21484375 325.4296875 C-182.19252671 314.97793801 -176.15330663 304.53700452 -170.0625 294.125 C-164.64177983 284.85669767 -159.29940317 275.54535637 -153.98379517 266.21658325 C-148.71460279 256.97134818 -143.38013907 247.76599867 -138.00561523 238.58154297 C-133.82620235 231.43334685 -129.70119989 224.25584554 -125.60180664 217.06152344 C-119.74940986 206.79456589 -113.83399787 196.56405595 -107.92333984 186.33056641 C-105.40363929 181.96730734 -102.88580023 177.60297586 -100.36816406 173.23852539 C-99.12155088 171.07747941 -97.87480584 168.91650949 -96.62792969 166.75561523 C-93.48843692 161.31467303 -90.3503312 155.87293898 -87.21484375 150.4296875 C-81.19252671 139.97793801 -75.15330663 129.53700452 -69.0625 119.125 C-63.98724877 110.44737759 -58.97741233 101.73394432 -54 93 C-48.45917173 83.2774208 -42.86396699 73.5886021 -37.21435547 63.92871094 C-28.90734851 49.72102662 -20.68116852 35.46633682 -12.53125 21.16796875 C-11.97683731 20.19571854 -11.97683731 20.19571854 -11.41122437 19.2038269 C-9.60987017 16.04443039 -7.81040278 12.8839852 -6.01416016 9.72167969 C-5.37269043 8.59536133 -4.7312207 7.46904297 -4.0703125 6.30859375 C-3.50070801 5.30626709 -2.93110352 4.30394043 -2.34423828 3.27124023 C-1 1 -1 1 0 0 Z " fill="#FEFEFE" transform="translate(1886,1841)"/>
<path d="M0 0 C2.26537227 1.11495239 2.8530021 2.03880763 4.01586914 4.26513672 C4.39710938 4.97557129 4.77834961 5.68600586 5.17114258 6.41796875 C5.77297363 7.58368408 5.77297363 7.58368408 6.38696289 8.77294922 C7.27721538 10.43530544 8.16919737 12.09673641 9.06274414 13.75732422 C9.74844482 15.04219727 9.74844482 15.04219727 10.44799805 16.35302734 C12.57719059 20.28965435 14.82018029 24.15699076 17.07446289 28.02294922 C17.52740723 28.80275146 17.98035156 29.58255371 18.44702148 30.38598633 C20.98080209 34.74456192 23.52507889 39.0969787 26.07055664 43.44873047 C32.72207321 54.82431381 39.31576272 66.23027399 45.83956909 77.67944336 C51.10912828 86.92531912 56.44395094 96.13131333 61.81884766 105.31640625 C65.99826054 112.46460236 70.123263 119.64210368 74.22265625 126.83642578 C80.0734366 137.1005476 85.98752977 147.32803201 91.89672852 157.55859375 C93.80675718 160.86727816 95.71444649 164.17729961 97.62133789 167.48779297 C103.70011645 178.03850661 109.79876806 188.57647931 115.94946289 199.08544922 C121.12339278 207.92772956 126.19230409 216.82462267 131.21606445 225.75292969 C134.70709728 231.94796872 138.26417594 238.09774262 141.88720703 244.21630859 C147.63191478 253.92952749 153.23752792 263.72374765 158.86889648 273.50292969 C162.01778343 278.96964902 165.17129553 284.43369809 168.32446289 289.89794922 C169.57448639 292.06460233 170.82448636 294.23126901 172.07446289 296.39794922 C173.00258789 298.00669922 173.00258789 298.00669922 173.94946289 299.64794922 C239.57446289 413.39794921 239.57446289 413.39794921 241.44970703 416.6484375 C242.69881807 418.81351993 243.94800418 420.97855904 245.19726562 423.14355469 C248.33648598 428.58410628 251.47436852 434.02542138 254.60961914 439.46826172 C260.73883561 450.10579061 266.8842062 460.73330512 273.07446289 471.33544922 C273.64575928 472.31481445 274.21705566 473.29417969 274.80566406 474.30322266 C277.5787469 479.05616786 280.35722141 483.80581978 283.14477539 488.55029297 C284.16312333 490.29110891 285.18135855 492.0319908 286.19946289 493.77294922 C286.67029297 494.57015381 287.14112305 495.3673584 287.6262207 496.1887207 C290.82446289 501.67133473 290.82446289 501.67133473 290.82446289 503.89794922 C288.23000476 505.55777725 285.63565828 507.08545323 282.94946289 508.58544922 C281.19280571 509.58388897 279.43630356 510.5826015 277.67993164 511.58154297 C276.73166504 512.11763184 275.78339844 512.6537207 274.80639648 513.20605469 C269.60722823 516.15596757 264.43693469 519.15586471 259.26196289 522.14794922 C257.03165677 523.43468948 254.80118607 524.72114452 252.57055664 526.00732422 C245.9881036 529.8034683 239.40622476 533.60060695 232.82446289 537.39794922 C230.65779894 538.64795392 228.49113227 539.89795391 226.32446289 541.14794922 C224.71571289 542.07607422 224.71571289 542.07607422 223.07446289 543.02294922 C187.3244629 563.64794921 187.3244629 563.64794921 184.07397461 565.52319336 C181.90889218 566.7723044 179.74385307 568.02149051 177.57885742 569.27075195 C172.13830583 572.40997231 166.69699073 575.54785485 161.25415039 578.68310547 C150.8024009 584.70542251 140.36146741 590.74464259 129.94946289 596.83544922 C120.67946512 602.25716099 111.36614537 607.59999837 102.03601074 612.91717529 C92.91163449 618.11840051 83.82313515 623.378228 74.75756836 628.68139648 C64.23361664 634.83561663 53.67066152 640.92164918 43.10668945 647.00683594 C37.67786347 650.1347507 32.25127008 653.2665337 26.82446289 656.39794922 C24.65780706 657.64796801 22.49114039 658.897968 20.32446289 660.14794922 C18.71571289 661.07607422 18.71571289 661.07607422 17.07446289 662.02294922 C-174.67553711 772.64794922 -174.67553711 772.64794922 -177.92602539 774.52319336 C-180.09110782 775.7723044 -182.25614693 777.02149051 -184.42114258 778.27075195 C-189.86169417 781.40997231 -195.30300927 784.54785485 -200.74584961 787.68310547 C-211.1975991 793.70542251 -221.63853259 799.74464259 -232.05053711 805.83544922 C-241.32053488 811.25716099 -250.63385463 816.59999837 -259.96398926 821.91717529 C-269.08836551 827.11840051 -278.17686485 832.378228 -287.24243164 837.68139648 C-297.76638336 843.83561663 -308.32933848 849.92164918 -318.89331055 856.00683594 C-323.23970851 858.51109052 -327.58463984 861.01788274 -331.92944336 863.52490234 C-335.18057189 865.40085437 -338.43196085 867.27635451 -341.68334961 869.15185547 C-345.99155362 871.63725824 -350.298765 874.12436899 -354.60522461 876.61279297 C-365.22939714 882.74993252 -375.86374348 888.86813992 -386.52185059 894.94610596 C-396.79400948 900.80407757 -407.03582824 906.7108477 -417.24291992 912.68164062 C-427.7666503 918.83587911 -438.32949631 924.92174009 -448.89331055 931.00683594 C-454.32213653 934.1347507 -459.74872992 937.2665337 -465.17553711 940.39794922 C-467.34219294 941.64796801 -469.50885961 942.897968 -471.67553711 944.14794922 C-472.74803711 944.76669922 -473.82053711 945.38544922 -474.92553711 946.02294922 C-486.84220378 952.89794922 -498.75887044 959.77294922 -510.67553711 966.64794922 C-512.2869458 967.57764526 -512.2869458 967.57764526 -513.9309082 968.52612305 C-516.07958438 969.76569417 -518.22834624 971.00511678 -520.37719727 972.24438477 C-525.45796804 975.174767 -530.53784361 978.10666985 -535.61468506 981.04385376 C-538.01483812 982.43232948 -540.41548072 983.81995755 -542.81616211 985.20751953 C-544.51195329 986.18813752 -546.20703487 987.1699823 -547.90209961 988.15185547 C-548.92819336 988.74482422 -549.95428711 989.33779297 -551.01147461 989.94873047 C-551.91430176 990.47120361 -552.81712891 990.99367676 -553.74731445 991.53198242 C-555.86389601 992.72263935 -557.99983084 993.82126866 -560.17553711 994.89794922 C-560.32974785 930.91628176 -560.47284929 866.9345923 -560.55662537 802.95278931 C-560.55786788 802.00627402 -560.55911039 801.05975873 -560.56039056 800.08456117 C-560.58732492 779.51566159 -560.61225681 758.94676005 -560.63512507 738.37785556 C-560.64635139 728.29129129 -560.65802033 718.20472756 -560.66992188 708.11816406 C-560.67109871 707.11441433 -560.67227554 706.11066459 -560.67348803 705.0764982 C-560.71185994 672.5251458 -560.77947635 639.97393374 -560.8622121 607.42266641 C-560.94705927 573.98004688 -561.00249534 540.53750505 -561.02077202 507.0947797 C-561.02336552 502.37436002 -561.02629626 497.65394061 -561.0294323 492.93352127 C-561.03034251 491.53991239 -561.03034251 491.53991239 -561.03127111 490.1181498 C-561.04191855 475.14518944 -561.08369304 460.17246891 -561.13702541 445.19960646 C-561.18994383 430.15730737 -561.21026584 415.11524674 -561.19704951 400.07285778 C-561.19018914 391.1288706 -561.20858583 382.1857542 -561.262715 373.2419238 C-561.29638361 367.27250552 -561.29756835 361.30365952 -561.27202343 355.33420222 C-561.25839176 351.92915677 -561.25918297 348.52576132 -561.29948575 345.12089066 C-561.33535638 341.4561616 -561.31630584 337.79576479 -561.28296757 334.13110924 C-561.30661069 333.06875118 -561.33025381 332.00639313 -561.35461339 330.91184241 C-561.20991812 323.92419289 -561.20991812 323.92419289 -558.19474929 320.93274398 C-555.91275511 319.39002172 -553.64599412 318.11031448 -551.17553711 316.89794922 C-549.81319946 316.08003906 -549.81319946 316.08003906 -548.42333984 315.24560547 C-547.65965088 314.82150391 -546.89596191 314.39740234 -546.10913086 313.96044922 C-545.22443115 313.46561035 -544.33973145 312.97077148 -543.42822266 312.4609375 C-542.49921143 311.94515137 -541.5702002 311.42936523 -540.61303711 310.89794922 C-532.48607867 306.34538096 -524.401258 301.73047069 -516.36303711 297.02294922 C-504.75615664 290.22902366 -493.11160706 283.5020501 -481.45776367 276.7890625 C-476.02893769 273.66114774 -470.6023443 270.52936474 -465.17553711 267.39794922 C-463.00888128 266.14793043 -460.84221461 264.89793043 -458.67553711 263.64794922 C-457.60303711 263.02919922 -456.53053711 262.41044922 -455.42553711 261.77294922 C-434.84220378 249.89794922 -414.25887044 238.02294922 -393.67553711 226.14794922 C-392.60263428 225.52895752 -391.52973145 224.90996582 -390.42431641 224.2722168 C-388.26175128 223.02460182 -386.09915372 221.77704305 -383.93652344 220.52954102 C-378.4568334 217.36851473 -372.97774353 214.20645613 -367.49975586 211.04248047 C-357.52905828 205.284867 -347.5541397 199.53573029 -337.55053711 193.83544922 C-329.15621398 189.05038025 -320.80514064 184.1938173 -312.46362305 179.31738281 C-301.81988466 173.09805372 -291.1398208 166.94227004 -280.45776367 160.7890625 C-275.02893769 157.66114774 -269.6023443 154.52936474 -264.17553711 151.39794922 C-262.00888128 150.14793043 -259.84221461 148.89793043 -257.67553711 147.64794922 C-256.60303711 147.02919922 -255.53053711 146.41044922 -254.42553711 145.77294922 C-244.67553712 140.14794923 -244.67553712 140.14794923 -241.42382812 138.27197266 C-239.26284723 137.02524666 -237.10187713 135.77850195 -234.94091797 134.53173828 C-229.4373486 131.35649039 -223.93357679 128.18159427 -218.42944336 125.00732422 C-196.51662807 112.38436064 -196.51662807 112.38436064 -174.65600586 99.67138672 C-163.2707469 93.01206635 -151.85388642 86.41273154 -140.39404297 79.88284302 C-131.14958993 74.6140947 -121.9446545 69.28069378 -112.76147461 63.90576172 C-105.56552095 59.69771405 -98.33641145 55.55123849 -91.09204102 51.42724609 C-84.57344391 47.71072763 -78.08893408 43.93830361 -71.61303711 40.14794922 C-62.83168227 35.00931505 -54.01541505 29.93493443 -45.17553711 24.89794922 C-24.56638651 13.55993413 -24.56638651 13.55993413 -4.62841797 1.16088867 C-2.17553711 -0.10205078 -2.17553711 -0.10205078 0 0 Z " fill="#FEFEFE" transform="translate(3113.175537109375,1841.10205078125)"/>
<path d="M0 0 C0.66 0 1.32 0 2 0 C20.67506397 37.94796228 39.02030683 75.96166356 55.99353027 114.70385742 C57.00480813 117.01096919 58.01833642 119.31708207 59.03222656 121.62304688 C79.33190304 167.83264476 97.95347684 214.79760744 113.32543945 262.89031982 C113.98319229 264.94743409 114.64480223 267.00327927 115.30664062 269.05908203 C129.29450487 312.67761651 139.89416251 357.4492788 145 403 C145.15686279 404.33200439 145.15686279 404.33200439 145.31689453 405.69091797 C146.32302224 415.59920606 146.22213746 425.57319169 146.24023438 435.52197266 C146.24985213 438.70112169 146.2809124 441.87959806 146.3125 445.05859375 C146.40981893 463.71491198 145.07150524 482.41892983 140.1875 500.5 C139.79957275 501.9840332 139.79957275 501.9840332 139.40380859 503.49804688 C132.42114236 529.50012563 119.99142654 552.00647874 102 572 C101.38125 572.70253906 100.7625 573.40507812 100.125 574.12890625 C52.79132431 624.73790325 -28.55590448 634.30617005 -94 637 C-99.84654726 637.16940412 -105.6943564 637.18745457 -111.54296875 637.203125 C-113.18238854 637.21015523 -114.82180809 637.21724196 -116.46122742 637.22438049 C-121.70332215 637.2438495 -126.94537278 637.2488195 -132.1875 637.25 C-133.08615028 637.25044186 -133.98480057 637.25088371 -134.91068268 637.25133896 C-166.70205287 637.25951841 -198.28851589 636.40590944 -230 634 C-231.11318604 633.9175 -232.22637207 633.835 -233.37329102 633.75 C-263.50191505 631.51681854 -293.56488605 628.62225739 -323.61328125 625.5078125 C-324.41909283 625.42443658 -325.22490442 625.34106065 -326.05513453 625.25515819 C-354.55455212 622.3038687 -383.01927599 619.08745896 -411.47265625 615.72265625 C-412.43988019 615.60828319 -413.40710413 615.49391013 -414.40363789 615.37607121 C-428.2937146 613.73265317 -442.18236794 612.07733322 -456.07073975 610.41957855 C-472.91222041 608.40948048 -489.75419384 606.40358737 -506.59765625 604.41015625 C-507.56586854 604.29554747 -508.53408084 604.18093869 -509.5316329 604.06285691 C-539.22644503 600.55008122 -568.93602924 597.19894815 -598.66796875 594.015625 C-599.52651309 593.92348323 -600.38505744 593.83134146 -601.26961827 593.73640752 C-674.35176588 585.89344164 -747.55334995 580.05805194 -821 577 C-821.92760132 576.96132812 -822.85520264 576.92265625 -823.81091309 576.8828125 C-922.87100322 572.83131343 -1022.93636785 577.20195135 -1221 620 C-1221.67166199 620.21658264 -1222.34332397 620.43316528 -1223.03533936 620.65631104 C-1262.20630979 633.32414154 -1299.87815727 649.21144584 -1336 669 C-1331.57994605 669 -1328.04150527 667.91006048 -1323.890625 666.578125 C-1322.1935956 666.04693353 -1320.49631753 665.51653602 -1318.79882812 664.98681641 C-1317.89720947 664.7039679 -1316.99559082 664.42111938 -1316.06665039 664.12969971 C-1247.15375502 642.60673964 -1176.09382691 629.15816981 -1104 625 C-1102.61482178 624.91322998 -1102.61482178 624.91322998 -1101.20166016 624.82470703 C-1013.8666418 619.4666329 -925.44533075 630.3009216 -831 653 C-830.22110413 653.18951233 -829.44220825 653.37902466 -828.63970947 653.57427979 C-771.93739727 667.3801753 -716.34471171 685.27399869 -660.94086456 703.51167297 C-524.19154574 748.62201489 -524.19154574 748.62201489 -375 773 C-373.0358313 773.12918823 -373.0358313 773.12918823 -371.03198242 773.26098633 C-360.24641338 773.93391702 -349.49295325 774.20250294 -338.6875 774.1875 C-337.86950928 774.18689575 -337.05151855 774.1862915 -336.20874023 774.18566895 C-256.00217919 774.02657514 -180.32210331 752.43754009 -109 717 C-109 720.99833488 -110.35814212 721.81158018 -113.0625 724.6875 C-114.30580078 726.02748047 -114.30580078 726.02748047 -115.57421875 727.39453125 C-116.37472656 728.25433594 -117.17523437 729.11414062 -118 730 C-119.13130827 731.28614516 -120.25690238 732.57735386 -121.375 733.875 C-125.64331636 738.76699729 -130.03322711 743.54629897 -134.44140625 748.31201172 C-135.47243238 749.42863369 -136.50112037 750.54741954 -137.52734375 751.66845703 C-146.41840077 761.37711437 -155.63966527 770.74574308 -164.9375 780.0625 C-165.52354004 780.65112823 -166.10958008 781.23975647 -166.71337891 781.84622192 C-172.42691951 787.57966232 -178.12173263 793.27464876 -184.28491211 798.5300293 C-187.04090078 800.89213717 -189.66561146 803.39228873 -192.3125 805.875 C-197.13582423 810.36189457 -202.08155978 814.62289013 -207.22265625 818.74609375 C-209.64774389 820.71413252 -212.01757598 822.7327287 -214.37719727 824.77832031 C-223.53754314 832.6845115 -233.23619069 839.86178389 -243 847 C-243.79792969 847.5868457 -244.59585938 848.17369141 -245.41796875 848.77832031 C-259.67221159 859.20983439 -274.65348404 868.29120988 -290 877 C-290.91894043 877.52223145 -291.83788086 878.04446289 -292.78466797 878.58251953 C-365.9631675 919.68239419 -448.69477341 925.87224502 -529.02734375 904 C-569.23124704 892.67399585 -607.42544044 875.71480805 -644.91601562 857.49121094 C-647.99443619 856.00269029 -651.08133297 854.53348183 -654.171875 853.0703125 C-667.64811961 846.68100713 -680.91886961 839.96202728 -694.13473511 833.05203247 C-703.53997311 828.14256293 -712.99538946 823.32957809 -722.44268799 818.50170898 C-731.27685798 813.98667194 -740.09119104 809.43936928 -748.86328125 804.8046875 C-756.25899591 800.89831892 -763.69377062 797.09074058 -771.1875 793.375 C-773.2643367 792.34117352 -775.34115941 791.30731894 -777.41796875 790.2734375 C-778.47322754 789.74911133 -779.52848633 789.22478516 -780.61572266 788.68457031 C-783.65199516 787.17322417 -786.68533247 785.65621402 -789.71766663 784.13699341 C-841.78220322 758.06094144 -894.72409483 734.25954241 -949.97619629 715.6817627 C-952.01521415 714.99487478 -954.05218353 714.30217376 -956.08886719 713.60839844 C-1020.35467026 691.77482778 -1087.42321467 677.88403366 -1155.0625 672.25 C-1156.12316681 672.16125107 -1156.12316681 672.16125107 -1157.20526123 672.07070923 C-1179.08326873 670.27272336 -1200.92662373 669.75652388 -1222.875 669.75 C-1223.90321491 669.74933722 -1223.90321491 669.74933722 -1224.95220184 669.74866104 C-1261.31052341 669.73644107 -1297.2430842 671.96171744 -1333.34033203 676.3737793 C-1342.26710314 677.45502325 -1350.98468164 678.38355705 -1360 678 C-1360.33 677.34 -1360.66 676.68 -1361 676 C-1362.88263881 675.09656316 -1362.88263881 675.09656316 -1365.0625 674.375 C-1366.16271484 673.98441406 -1366.16271484 673.98441406 -1367.28515625 673.5859375 C-1367.85105469 673.39257812 -1368.41695312 673.19921875 -1369 673 C-1367.4375 671.75 -1367.4375 671.75 -1365 671 C-1362.42998985 672.06762734 -1360.3469597 673.46544943 -1358 675 C-1357.67 674.34 -1357.34 673.68 -1357 673 C-1355.68 673.66 -1354.36 674.32 -1353 675 C-1352.5153125 674.50371094 -1352.030625 674.00742188 -1351.53125 673.49609375 C-1348.13938914 670.05857322 -1344.73016086 666.70620931 -1341.0625 663.5625 C-1338.07198284 660.99334729 -1335.26883316 658.30682744 -1332.5 655.5 C-1329.16879193 652.12899935 -1325.74888372 648.9548597 -1322.15234375 645.87109375 C-1319.61947838 643.66920171 -1317.15667478 641.39804174 -1314.6875 639.125 C-1310.22126486 635.05140091 -1305.63078621 631.19172297 -1300.92578125 627.3984375 C-1298.27759586 625.22756189 -1295.68835548 623.0069133 -1293.10742188 620.75756836 C-1285.38393817 614.03652666 -1277.34944287 607.80365567 -1269.17333984 601.64550781 C-1267.01799873 600.01362744 -1264.8761687 598.36560044 -1262.73828125 596.7109375 C-1194.04955643 543.57961049 -1116.2771584 501.58085989 -945 441 C-943.82652008 440.67512604 -943.82652008 440.67512604 -942.6293335 440.34368896 C-847.60287009 414.08859702 -749.81473933 400.60307285 -585.5625 390.875 C-584.55508759 390.83638855 -583.54767517 390.7977771 -582.50973511 390.75799561 C-575.07080769 390.47811018 -567.63095975 390.25403297 -560.18936539 390.05789566 C-558.69673018 390.01842436 -557.20411338 389.9782519 -555.71151352 389.93746567 C-523.53348141 389.06211282 -491.35582013 388.8786344 -459.16796875 388.75390625 C-457.02415021 388.74543782 -454.88033167 388.7369692 -452.73651314 388.72850037 C-433.86414999 388.6546914 -414.99175993 388.58755933 -396.11933124 388.53289485 C-262.45708188 389.37724222 -262.45708188 389.37724222 -20 326 C-19.17242188 325.29359375 -18.34484375 324.5871875 -17.4921875 323.859375 C15.43290362 295.06250631 30.65106963 252.69227739 33.7890625 209.85986328 C35.13970638 185.14495624 34.23105224 160.53500789 31 136 C30.83371094 134.73236816 30.66742187 133.46473633 30.49609375 132.15869141 C24.69322069 89.3625026 14.23750079 46.8737345 1.14453125 5.75 C0 2 0 2 0 0 Z " fill="#F3AD35" transform="translate(3854,2384)"/>
<path d="M0 0 C0.66 0 1.32 0 2 0 C-0.09475459 8.75363916 -2.52377043 17.39234641 -5.04257202 26.03048706 C-16.20775191 64.45533768 -25.16653774 103.22949111 -30 143 C-30.11714355 143.91765137 -30.23428711 144.83530273 -30.35498047 145.78076172 C-36.83869427 198.1225404 -33.17843095 259.70483289 0.0625 303 C1.68732169 305.0171073 3.33210094 307.01836429 5 309 C6.10988281 310.32064453 6.10988281 310.32064453 7.2421875 311.66796875 C58.06760949 369.99963633 147.21728878 379.45820787 219.85342407 384.4916687 C227.89979749 385.03566679 235.948913 385.53135398 244 386 C245.16917969 386.06815918 246.33835937 386.13631836 247.54296875 386.20654297 C281.61752969 388.10270001 315.81463449 388.15880775 349.93106365 388.27039146 C355.29440986 388.28908261 360.65773125 388.31330847 366.02105713 388.33703613 C379.59735333 388.39622542 393.17367309 388.44842264 406.75 388.5 C424.61981321 388.56804124 442.489612 388.63847606 460.359375 388.71875 C461.43189003 388.72355763 462.50440506 388.72836525 463.60942054 388.73331857 C494.99582488 388.87587614 526.37269386 389.09936291 557.74965668 389.93990326 C559.89338258 389.99715272 562.03715609 390.05190356 564.18096924 390.10577393 C571.6849863 390.29779761 579.18633413 390.53070871 586.6875 390.8125 C588.31531403 390.87260757 588.31531403 390.87260757 589.97601318 390.93392944 C687.37030943 394.59739097 784.80640373 403.75119177 1162.28271484 529.43408203 C1164.98764734 530.9928814 1167.70422129 532.52903676 1170.42578125 534.05859375 C1199.00207636 550.14711052 1226.75203301 568.32999068 1253 588 C1253.83289551 588.62326172 1254.66579102 589.24652344 1255.52392578 589.88867188 C1266.64203348 598.23284935 1277.58329058 606.7652354 1288.30859375 615.60839844 C1290.73677601 617.60618119 1293.18286415 619.58181424 1295.625 621.5625 C1305.16773379 629.39097023 1314.49467783 637.43090737 1323.52246094 645.84863281 C1326.34365491 648.47885366 1329.1915257 651.05831462 1332.125 653.5625 C1336.446769 657.28784653 1340.40166911 661.37189589 1344.38671875 665.44921875 C1346.93847166 668.04612907 1346.93847166 668.04612907 1349.83203125 670.14453125 C1350.54746094 670.75683594 1351.26289063 671.36914062 1352 672 C1352 672.99 1352 673.98 1352 675 C1346.85830314 673.48821177 1342.43262697 671.22714532 1337.75 668.6875 C1250.7992723 622.39250572 1156.56208905 597.25677698 958.20037842 577.09570312 C956.1349641 577.00587012 954.06967415 576.91319077 952.00439453 576.8203125 C865.42608166 573.09508352 778.43905506 577.84196742 451.60429597 611.11717457 C310.92273191 627.74470512 310.92273191 627.74470512 247.1875 632.8125 C245.9382373 632.91250305 244.68897461 633.0125061 243.40185547 633.11553955 C209.2895192 635.81452382 175.24301252 637.35233515 141.0234375 637.26074219 C136.7060129 637.24925777 132.38883257 637.25620533 128.0714159 637.26762009 C101.79004346 637.32654041 75.67179898 636.5311619 49.5625 633.25 C48.89774658 633.16763092 48.23299316 633.08526184 47.5480957 633.00039673 C-4.69700848 626.46364173 -56.4049945 612.29427563 -96 576 C-96.72058594 575.36191406 -97.44117188 574.72382813 -98.18359375 574.06640625 C-127.89399164 546.33258369 -142.37097537 502.1979422 -144.11459351 462.38331604 C-144.17977102 459.62117571 -144.21630739 456.8604785 -144.23828125 454.09765625 C-144.2480751 453.07468948 -144.25786896 452.05172272 -144.26795959 450.99775696 C-144.4522441 426.70327987 -143.851933 403.00338932 -140 379 C-139.89109436 378.31262756 -139.78218872 377.62525513 -139.66998291 376.91705322 C-132.22308722 330.17244058 -119.1884538 284.71560492 -103.70843506 240.04785156 C-103.0227352 238.06571996 -102.34185937 236.0820022 -101.66259766 234.09765625 C-77.98950617 165.04075138 -47.65843729 98.35702792 -15.81152344 32.73632812 C-12.89013685 26.71429441 -9.98366529 20.685048 -7.07519531 14.6567688 C-5.57405916 11.54568148 -4.07215626 8.43496454 -2.5703125 5.32421875 C-2.07289551 4.29385498 -1.57547852 3.26349121 -1.06298828 2.2019043 C-0.71220215 1.47527588 -0.36141602 0.74864746 0 0 Z " fill="#1882C1" transform="translate(1144,2384)"/>
<path d="M0 0 C3.56140788 1.12984896 7.13356123 2.21736207 10.71020508 3.29785156 C15.07658777 4.63627864 19.27189018 6.09060805 23.46020508 7.90722656 C24.45665039 8.33519531 25.4530957 8.76316406 26.47973633 9.20410156 C27.19516602 9.51863281 27.9105957 9.83316406 28.64770508 10.15722656 C28.64770508 10.48722656 28.64770508 10.81722656 28.64770508 11.15722656 C20.58267649 11.38630181 12.77106545 10.57896737 4.77740479 9.61853027 C-50.68776014 3.06468516 -107.65664633 1.26262241 -163.35229492 6.15722656 C-164.09326416 6.22039063 -164.8342334 6.28355469 -165.59765625 6.34863281 C-230.83965094 11.91565861 -295.0757132 24.94793545 -357.35229492 45.15722656 C-358.1423291 45.41248108 -358.93236328 45.6677356 -359.74633789 45.9307251 C-399.68040479 58.85121821 -438.60682328 74.39732365 -476.72756958 91.94885254 C-478.62225704 92.8211309 -480.51795264 93.6912206 -482.41427612 94.55993652 C-503.36421825 104.17112518 -524.01098694 114.34539269 -544.6083374 124.68743896 C-547.87170108 126.32456835 -551.13733167 127.95714766 -554.40296364 129.58974648 C-569.81138837 137.29421785 -585.19874134 145.02097082 -600.40249634 153.12402344 C-603.70062534 154.87171021 -607.01793217 156.58189431 -610.33666992 158.29003906 C-610.97185043 158.61700775 -611.60703094 158.94397644 -612.26145935 159.28085327 C-614.20804049 160.28202112 -616.15511926 161.28221555 -618.10229492 162.28222656 C-620.9696819 163.75579706 -623.83682949 165.22983262 -626.70385742 166.70410156 C-627.42253998 167.07356903 -628.14122253 167.4430365 -628.88168335 167.82369995 C-633.78192451 170.34453451 -638.67449651 172.87978693 -643.56323242 175.42285156 C-658.69388734 183.28894692 -673.87315318 190.99290232 -689.35229492 198.15722656 C-690.51132324 198.69557129 -691.67035156 199.23391602 -692.86450195 199.78857422 C-741.61712084 222.3847835 -792.63863424 242.67310806 -846.35229492 249.15722656 C-847.74617432 249.32859131 -847.74617432 249.32859131 -849.16821289 249.50341797 C-939.00109346 260.05819506 -1022.91664887 225.24390777 -1092.55297852 170.42480469 C-1096.60752178 167.18705022 -1100.61954043 163.89952521 -1104.61547852 160.58984375 C-1107.11463897 158.52840524 -1109.64274863 156.5030595 -1112.16479492 154.46972656 C-1116.86156318 150.62627506 -1121.35113457 146.58550908 -1125.81713867 142.47753906 C-1127.88555251 140.58441454 -1129.97635369 138.73470953 -1132.10229492 136.90722656 C-1143.48200725 126.99077333 -1154.26530655 116.40973038 -1164.91674805 105.72314453 C-1166.87588148 103.75857455 -1168.84041136 101.79951208 -1170.80541992 99.84082031 C-1181.82886647 88.82328092 -1181.82886647 88.82328092 -1186.8659668 82.89306641 C-1189.58655377 79.71577117 -1192.48389451 76.70057793 -1195.35229492 73.65722656 C-1201.58495797 67.01025829 -1207.73820931 60.34325615 -1213.35229492 53.15722656 C-1212.85729492 52.16722656 -1212.85729492 52.16722656 -1212.35229492 51.15722656 C-1211.64137695 51.51324951 -1210.93045898 51.86927246 -1210.19799805 52.23608398 C-1155.29223254 79.58835866 -1097.57666546 98.6902574 -1036.41479492 105.46972656 C-1035.68024078 105.55121948 -1034.94568665 105.6327124 -1034.18887329 105.7166748 C-1017.52459345 107.53301918 -1000.92596962 108.36791413 -984.16479492 108.34472656 C-983.34458862 108.34412231 -982.52438232 108.34351807 -981.67932129 108.34289551 C-927.36098658 108.23549007 -873.95060502 99.1651178 -821.35229492 86.15722656 C-820.59658203 85.97135986 -819.84086914 85.78549316 -819.06225586 85.59399414 C-761.47249614 71.40837289 -705.16518226 52.23919961 -648.85620117 33.72363281 C-555.11330108 2.90946836 -460.16948716 -25.04298899 -310.35229492 -40.84277344 C-309.44044434 -40.89916992 -308.52859375 -40.95556641 -307.58911133 -41.01367188 C-218.92499558 -46.46149429 -129.71036323 -35.16546707 0 0 Z " fill="#1972B5" transform="translate(2467.352294921875,3049.8427734375)"/>
<path d="M0 0 C1.16834381 0.28426849 1.16834381 0.28426849 2.36029053 0.57427979 C59.06260273 14.3801753 114.65528829 32.27399869 170.05913544 50.51167297 C306.80845426 95.62201489 306.80845426 95.62201489 456 120 C457.9641687 120.12918823 457.9641687 120.12918823 459.96801758 120.26098633 C470.75358662 120.93391702 481.50704675 121.20250294 492.3125 121.1875 C493.13049072 121.18689575 493.94848145 121.1862915 494.79125977 121.18566895 C574.99782081 121.02657514 650.67789669 99.43754009 722 64 C722 67.99833488 720.64185788 68.81158018 717.9375 71.6875 C717.10863281 72.58082031 716.27976562 73.47414063 715.42578125 74.39453125 C714.62527344 75.25433594 713.82476563 76.11414062 713 77 C711.86869173 78.28614516 710.74309762 79.57735386 709.625 80.875 C705.35668364 85.76699729 700.96677289 90.54629897 696.55859375 95.31201172 C695.52756762 96.42863369 694.49887963 97.54741954 693.47265625 98.66845703 C684.58159923 108.37711437 675.36033473 117.74574308 666.0625 127.0625 C665.47645996 127.65112823 664.89041992 128.23975647 664.28662109 128.84622192 C658.57308049 134.57966232 652.87826737 140.27464876 646.71508789 145.5300293 C643.95909922 147.89213717 641.33438854 150.39228873 638.6875 152.875 C633.86417577 157.36189457 628.91844022 161.62289013 623.77734375 165.74609375 C621.35225611 167.71413252 618.98242402 169.7327287 616.62280273 171.77832031 C607.46245686 179.6845115 597.76380931 186.86178389 588 194 C587.20207031 194.5868457 586.40414062 195.17369141 585.58203125 195.77832031 C571.32778841 206.20983439 556.34651596 215.29120988 541 224 C540.08105957 224.52223145 539.16211914 225.04446289 538.21533203 225.58251953 C465.0368325 266.68239419 382.30522659 272.87224502 301.97265625 251 C261.76875296 239.67399585 223.57455956 222.71480805 186.08398438 204.49121094 C183.00556381 203.00269029 179.91866703 201.53348183 176.828125 200.0703125 C163.35188039 193.68100713 150.08113039 186.96202728 136.86526489 180.05203247 C127.46002689 175.14256293 118.00461054 170.32957809 108.55731201 165.50170898 C99.72314202 160.98667194 90.90880896 156.43936928 82.13671875 151.8046875 C74.74100409 147.89831892 67.30622938 144.09074058 59.8125 140.375 C57.7356633 139.34117352 55.65884059 138.30731894 53.58203125 137.2734375 C52.52677246 136.74911133 51.47151367 136.22478516 50.38427734 135.68457031 C47.34800484 134.17322417 44.31466753 132.65621402 41.28233337 131.13699341 C-10.78220322 105.06094144 -63.72409483 81.25954241 -118.97619629 62.6817627 C-121.01521415 61.99487478 -123.05218353 61.30217376 -125.08886719 60.60839844 C-189.35467026 38.77482778 -256.42321467 24.88403366 -324.0625 19.25 C-325.12316681 19.16125107 -325.12316681 19.16125107 -326.20526123 19.07070923 C-348.0837144 17.27268674 -369.92629979 16.76089055 -391.875 16.75 C-392.55812004 16.74926357 -393.24124008 16.74852715 -393.94506073 16.7477684 C-426.75020245 16.71909812 -459.43890726 18.20918509 -492.03173828 22.08520508 C-499.0549496 22.90857417 -505.92988731 23.14881961 -513 23 C-510.25236893 19.96486742 -508.09149431 18.35882387 -504.21484375 17.0625 C-503.23257813 16.7312915 -502.2503125 16.40008301 -501.23828125 16.05883789 C-500.14902344 15.70942139 -499.05976563 15.36000488 -497.9375 15 C-496.18179688 14.4285022 -496.18179688 14.4285022 -494.390625 13.84545898 C-422.46709147 -9.28195202 -348.34380899 -23.1125389 -273 -28 C-271.9260498 -28.07202637 -270.85209961 -28.14405273 -269.74560547 -28.21826172 C-182.6884318 -33.79335166 -94.1539511 -22.62915422 0 0 Z " fill="#F3A030" transform="translate(3023,3037)"/>
<path d="M0 0 C0.99 0.33 1.98 0.66 3 1 C2.01 2.485 2.01 2.485 1 4 C2.423125 3.2265625 2.423125 3.2265625 3.875 2.4375 C4.90625 1.963125 5.9375 1.48875 7 1 C7.66 1.33 8.32 1.66 9 2 C9 2.66 9 3.32 9 4 C7.02 4.99 5.04 5.98 3 7 C3.99 7.66 4.98 8.32 6 9 C-0.69675136 10.03026944 -7.2314676 10.10152799 -14 10 C-14.33 9.34 -14.66 8.68 -15 8 C-16.88263881 7.09656316 -16.88263881 7.09656316 -19.0625 6.375 C-19.79597656 6.11460937 -20.52945313 5.85421875 -21.28515625 5.5859375 C-21.85105469 5.39257812 -22.41695312 5.19921875 -23 5 C-21.4375 3.75 -21.4375 3.75 -19 3 C-16.42998985 4.06762734 -14.3469597 5.46544943 -12 7 C-11.67 6.34 -11.34 5.68 -11 5 C-9.68 5.66 -8.36 6.32 -7 7 C-4.69 4.69 -2.38 2.38 0 0 Z " fill="#F6A76E" transform="translate(2508,3052)"/>
<path d="M0 0 C0.66 0 1.32 0 2 0 C-1.07517084 12.66970387 -1.07517084 12.66970387 -3 18 C-4.32 17.34 -5.64 16.68 -7 16 C-5.35433477 10.31497465 -2.70967216 5.23318364 0 0 Z " fill="#76C5E7" transform="translate(1144,2384)"/>
<path d="M0 0 C0.66 0 1.32 0 2 0 C3.03041513 1.95330868 4.0490893 3.91281528 5.0625 5.875 C5.63097656 6.96554688 6.19945313 8.05609375 6.78515625 9.1796875 C7.18605469 10.11039063 7.58695313 11.04109375 8 12 C7.67 12.66 7.34 13.32 7 14 C6.34 13.67 5.68 13.34 5 13 C4.67 13.66 4.34 14.32 4 15 C3.3299166 12.87607494 2.66403203 10.75082476 2 8.625 C1.62875 7.44164063 1.2575 6.25828125 0.875 5.0390625 C0 2 0 2 0 0 Z " fill="#F7D881" transform="translate(3854,2384)"/>
<path d="M0 0 C3.0831351 1.19899698 6.06279492 2.47700477 9 4 C9.33 3.34 9.66 2.68 10 2 C10.99 3.65 11.98 5.3 13 7 C11.02 7 9.04 7 7 7 C6.67 6.34 6.34 5.68 6 5 C4.11736119 4.09656316 4.11736119 4.09656316 1.9375 3.375 C1.20402344 3.11460937 0.47054687 2.85421875 -0.28515625 2.5859375 C-0.85105469 2.39257812 -1.41695312 2.19921875 -2 2 C-1.34 1.34 -0.68 0.68 0 0 Z " fill="#ADBBD7" transform="translate(2487,3055)"/>
<path d="M0 0 C0.66 0.33 1.32 0.66 2 1 C1.01 1.7734375 1.01 1.7734375 0 2.5625 C-3.75333644 5.61208585 -7.37602035 8.7986681 -11 12 C-11.33 11.01 -11.66 10.02 -12 9 C-8.04 6.03 -4.08 3.06 0 0 Z " fill="#F6A769" transform="translate(2586,2985)"/>
<path d="M0 0 C0.93423645 3.01031744 1.04449911 3.86650268 0 7 C-0.66 7 -1.32 7 -2 7 C-2.309375 7.78375 -2.61875 8.5675 -2.9375 9.375 C-4 12 -4 12 -5 14 C-5.66 14 -6.32 14 -7 14 C-5.53967505 8.68972746 -3.01679014 4.53669968 0 0 Z " fill="#6ECCEF" transform="translate(1622,2085)"/>
<path d="M0 0 C0.66 0.33 1.32 0.66 2 1 C0.625 2.5 0.625 2.5 -1 4 C-1.66 4 -2.32 4 -3 4 C-3 4.66 -3 5.32 -3 6 C-5.97 6.66 -8.94 7.32 -12 8 C-9.43564561 5.43564561 -7.53445956 3.98470552 -4.4375 2.25 C-3.65246094 1.80140625 -2.86742188 1.3528125 -2.05859375 0.890625 C-1.37925781 0.59671875 -0.69992188 0.3028125 0 0 Z " fill="#79D5F5" transform="translate(2990,1788)"/>
<path d="M0 0 C0.66 0.33 1.32 0.66 2 1 C2 1.66 2 2.32 2 3 C0.40084119 3.69906942 -1.20455045 4.38389468 -2.8125 5.0625 C-3.70582031 5.44535156 -4.59914063 5.82820313 -5.51953125 6.22265625 C-8 7 -8 7 -11 6 C-9.21385682 4.96953278 -7.42089982 3.95086764 -5.625 2.9375 C-4.62726562 2.36902344 -3.62953125 1.80054687 -2.6015625 1.21484375 C-1.74304687 0.81394531 -0.88453125 0.41304687 0 0 Z " fill="#FDEDE2" transform="translate(2515,3053)"/>
<path d="M0 0 C0.66 0 1.32 0 2 0 C3.06775224 1.96466413 4.06553465 3.96855359 5 6 C4 8 4 8 2 9 C1.34 6.03 0.68 3.06 0 0 Z " fill="#FAE4A9" transform="translate(3854,2384)"/>
<path d="M0 0 C0.66 0.33 1.32 0.66 2 1 C-0.31 3.31 -2.62 5.62 -5 8 C-5.66 7.34 -6.32 6.68 -7 6 C-4.69 4.02 -2.38 2.04 0 0 Z " fill="#F7D784" transform="translate(3835,2709)"/>
</svg>
